<svg width="123" height="31" viewBox="0 0 123 31" fill="none" xmlns="http://www.w3.org/2000/svg">
<path d="M87.4841 18.8159H84.8315V26.3463H87.4841V18.8159Z" fill="white"/>
<path d="M83.5398 22.1445H60.8691V23.1579H83.5398V22.1445Z" fill="white"/>
<path d="M50.3682 21.5188V23.6448C50.3682 23.8633 50.3384 24.0918 50.2689 24.3005C50.1994 24.529 50.0901 24.7475 49.9411 24.9363C49.792 25.125 49.6132 25.2939 49.4145 25.4231L48.2621 26.1483C48.0535 26.2774 47.8051 26.347 47.5568 26.347H40.3542V25.3337H46.6328C47.2289 25.3337 47.7157 24.8469 47.7157 24.2508V20.8929C47.7157 20.2968 47.2289 19.81 46.6328 19.81H41.4371C40.841 19.81 40.3542 20.2968 40.3542 20.8929V20.9227C40.3542 21.5188 40.841 22.0056 41.4371 22.0056H46.4739V23.0189H40.5131C40.4635 23.0189 40.4039 23.0189 40.3542 23.009C40.1555 22.9891 39.9767 22.9196 39.8078 22.8103L38.6554 22.0851C38.4468 21.9559 38.2679 21.787 38.1288 21.5983C37.9798 21.4095 37.8705 21.1909 37.801 20.9624C37.7911 20.9426 37.7911 20.9227 37.7811 20.9028C37.7315 20.7041 37.7017 20.5055 37.7017 20.3068V18.8066H40.3542V18.8166C40.4039 18.8066 40.4535 18.8066 40.5131 18.8066H47.5568C47.8051 18.8066 48.0535 18.8762 48.2621 19.0053L49.4145 19.7306C49.6232 19.8597 49.792 20.0286 49.9411 20.2174C50.0801 20.4061 50.1994 20.6247 50.2689 20.8532C50.3384 21.0817 50.3682 21.3002 50.3682 21.5188Z" fill="white"/>
<path d="M12.6666 21.5188V23.6448C12.6666 23.8633 12.6368 24.0918 12.5672 24.3005C12.4977 24.529 12.3884 24.7475 12.2394 24.9363C12.0904 25.125 11.9116 25.2939 11.7129 25.4231L10.5605 26.1483C10.3518 26.2774 10.1035 26.347 9.8551 26.347H2.66247V25.3337H8.94112C9.53719 25.3337 10.024 24.8469 10.024 24.2508V20.8929C10.024 20.2968 9.53719 19.81 8.94112 19.81H3.7354C3.13933 19.81 2.65253 20.2968 2.65253 20.8929V20.9227C2.65253 21.5188 3.13933 22.0056 3.7354 22.0056H8.77223V23.0189H2.81149C2.76181 23.0189 2.7022 23.0189 2.65253 23.009C2.45384 22.9891 2.27502 22.9196 2.10613 22.8103L0.953719 22.0851C0.745093 21.9559 0.566271 21.787 0.427187 21.5983C0.278168 21.4095 0.168888 21.1909 0.0993458 20.9624C0.0894112 20.9426 0.0894112 20.9227 0.0794766 20.9028C0.0298037 20.7041 0 20.5055 0 20.3068V18.8066H2.65253V18.8166C2.7022 18.8066 2.75188 18.8066 2.81149 18.8066H9.8551C10.1035 18.8066 10.3518 18.8762 10.5605 19.0053L11.7129 19.7306C11.9215 19.8597 12.0904 20.0286 12.2394 20.2174C12.3785 20.4061 12.4977 20.6247 12.5672 20.8532C12.6368 21.0817 12.6666 21.3002 12.6666 21.5188Z" fill="white"/>
<path d="M33.6683 24.2599C33.6683 24.856 33.1816 25.3428 32.5855 25.3428H23.6543V26.3561H33.5094C33.7578 26.3561 34.0061 26.2866 34.2148 26.1574L35.3672 25.4322C35.5758 25.303 35.7546 25.1341 35.8937 24.9454C36.0427 24.7566 36.152 24.5381 36.2215 24.3096C36.2811 24.1009 36.3209 23.8724 36.3209 23.6539V21.5279C36.3209 21.3093 36.2911 21.0808 36.2215 20.8722C36.152 20.6437 36.0427 20.4252 35.8937 20.2364C35.7447 20.0476 35.5659 19.8787 35.3672 19.7496L34.2148 19.0244C34.0061 18.8952 33.7578 18.8257 33.5094 18.8257H26.6347V19.839H32.5855C33.1816 19.839 33.6683 20.3258 33.6683 20.9219V24.2599Z" fill="white"/>
<path d="M23.6538 18.8166V20.4458C23.6538 20.6644 23.624 20.8929 23.5545 21.1015C23.4849 21.33 23.3757 21.5486 23.2266 21.7373C23.0776 21.9261 22.8988 22.095 22.7001 22.2241L21.5477 22.9494C21.3391 23.0785 21.0907 23.1481 20.8423 23.1481H12.6562V22.1347H19.9184C20.5145 22.1347 21.0013 21.6479 21.0013 21.0519V18.8066H23.6538V18.8166Z" fill="white"/>
<path d="M20.0179 25.3433H13.312V26.3566H20.0179V25.3433Z" fill="white"/>
<path d="M62.4988 18.8166V20.4458C62.4988 20.6644 62.469 20.8929 62.3994 21.1015C62.3299 21.33 62.2206 21.5486 62.0716 21.7373C61.9226 21.9261 61.7437 22.095 61.5451 22.2241L60.3926 22.9494C60.184 23.0785 59.9357 23.1481 59.6873 23.1481H50.3687V22.1347H58.7634C59.3594 22.1347 59.8462 21.6479 59.8462 21.0519V18.8066H62.4988V18.8166Z" fill="white"/>
<path d="M58.2166 18.8159H51.5107V19.8292H58.2166V18.8159Z" fill="white"/>
<path d="M58.5642 3.7749H55.9116V11.3053H58.5642V3.7749Z" fill="white"/>
<path d="M36.5788 3.7749H33.9263V5.43398H36.5788V3.7749Z" fill="white"/>
<path d="M51.9777 3.7749V6.02012C51.9777 6.61619 51.491 7.10298 50.8949 7.10298H42.6293V3.7749H39.9768V9.21905C39.9768 9.81512 39.49 10.3019 38.8939 10.3019H31.6119C31.0158 10.3019 30.529 9.81512 30.529 9.21905V3.7749H27.8765V8.60311C27.8765 8.82167 27.9063 9.05016 27.9758 9.25879C28.0454 9.48728 28.1546 9.70584 28.3037 9.8946C28.4527 10.0834 28.6315 10.2522 28.8302 10.3814L29.9826 11.1066C30.1912 11.2358 30.4396 11.3053 30.6879 11.3053H39.8178C40.0662 11.3053 40.3146 11.2358 40.5232 11.1066L41.6756 10.3814C41.8842 10.2522 42.063 10.0933 42.2021 9.8946C42.3511 9.70584 42.4604 9.48728 42.53 9.25879C42.5896 9.05016 42.6293 8.82167 42.6293 8.60311V8.10638H51.8287C52.0771 8.10638 52.3255 8.03684 52.5341 7.90769L53.6865 7.18246C53.8951 7.05331 54.0739 6.88442 54.213 6.69567C54.3521 6.50691 54.4713 6.28835 54.5409 6.05985C54.6005 5.85123 54.6402 5.62273 54.6402 5.40417V3.7749H51.9777Z" fill="white"/>
<path d="M50.9944 10.3022H44.2886V11.3156H50.9944V10.3022Z" fill="white"/>
<path d="M62.4982 3.7749H59.8457V5.43398H62.4982V3.7749Z" fill="white"/>
<path d="M71.8468 3.7749V6.02012C71.8468 6.61619 71.36 7.10298 70.764 7.10298H63.5018H62.6474C62.3991 7.10298 62.1507 7.17253 61.9421 7.30168L60.7897 8.0269C60.581 8.15605 60.4121 8.32494 60.2631 8.5137C60.1141 8.70245 60.0048 8.92101 59.9353 9.14951C59.8657 9.35813 59.8359 9.58663 59.8359 9.80519V11.3053H62.4984V9.19918C62.4984 8.60311 62.9852 8.11631 63.5813 8.11631H70.4659H71.6978C71.9462 8.11631 72.1946 8.04677 72.4032 7.91762L73.5556 7.1924C73.7642 7.06325 73.943 6.89436 74.0821 6.7056C74.2212 6.51684 74.3404 6.29828 74.41 6.06979C74.4696 5.86116 74.5093 5.63267 74.5093 5.41411V3.7749H71.8468Z" fill="white"/>
<path d="M70.8533 10.3022H64.1475V11.3156H70.8533V10.3022Z" fill="white"/>
<path d="M84.831 9.21937C84.831 9.81544 84.3443 10.3022 83.7482 10.3022H72.8301V11.3156H84.6721C84.9205 11.3156 85.1688 11.246 85.3774 11.1169L86.5299 10.3916C86.7385 10.2625 86.9173 10.0936 87.0564 9.90486C87.2054 9.7161 87.3147 9.49754 87.3842 9.26904C87.4438 9.06042 87.4836 8.83192 87.4836 8.61336V6.48736C87.4836 6.2688 87.4538 6.04031 87.3842 5.83168C87.3147 5.60318 87.2054 5.38462 87.0564 5.19587C86.9074 5.00711 86.7286 4.83822 86.5299 4.70907L85.3774 3.98385C85.1688 3.8547 84.9205 3.78516 84.6721 3.78516H75.8105V4.79848H83.7482C84.3443 4.79848 84.831 5.28528 84.831 5.88135V9.21937Z" fill="white"/>
<rect x="92.8979" width="30.1018" height="30.1018" rx="6.64415" fill="white"/>
<path d="M114.526 17.4346C114.526 18.2791 113.84 18.9646 112.996 18.9646H97.5674V20.3952H114.307C114.655 20.3952 115.003 20.2958 115.301 20.107L116.93 19.0838C117.218 18.905 117.466 18.6665 117.675 18.3983C117.874 18.1301 118.033 17.8221 118.132 17.4943C118.221 17.1962 118.271 16.8783 118.271 16.5703V13.5602C118.271 13.2423 118.221 12.9343 118.132 12.6362C118.033 12.3084 117.874 12.0004 117.675 11.7322C117.466 11.464 117.218 11.2355 116.93 11.0467L115.301 10.0235C115.003 9.8347 114.655 9.73535 114.307 9.73535H101.78V11.1659H113.006C113.85 11.1659 114.536 11.8514 114.536 12.6959V17.4346H114.526Z" fill="#002217"/>
</svg>
