<svg width="1440" height="325" viewBox="0 0 1440 325" fill="none" xmlns="http://www.w3.org/2000/svg">
<g clip-path="url(#clip0_730_426)">
<path d="M719 325C444.194 325 192.903 279.916 1.04585e-05 205.368L2.84124e-05 -0.000125889L1440 0L1440 204.595C1246.84 279.605 994.757 325 719 325Z" fill="white"/>
<g opacity="0.3">
<path d="M614.335 261.721C603.167 260.126 592.504 258.278 582.176 256.095C577.558 255.172 572.94 254.164 568.49 253.073C563.2 251.813 557.994 250.47 553.04 249.042C531.881 243.081 513.913 235.944 501.15 228.303C490.235 221.754 485.113 216.212 482.762 212.686C481.25 210.418 480.579 207.899 480.579 205.381C480.579 202.862 481.334 200.259 482.762 198.076C483.937 196.312 485.784 194.045 488.723 191.358C491.662 188.672 495.692 185.649 501.15 182.374C513.913 174.733 531.881 167.596 553.04 161.635C558.078 160.207 563.2 158.864 568.49 157.605C569.749 146.017 571.429 134.85 573.528 124.019C559.758 126.957 546.827 130.232 534.82 134.01C509.714 141.819 489.731 151.139 475.457 161.635C465.297 169.108 457.992 177.336 453.626 186.069C450.519 192.282 448.924 198.747 448.924 205.381C448.924 211.93 450.519 218.395 453.626 224.692C457.992 233.425 465.297 241.653 475.457 249.126C489.731 259.622 509.714 268.942 534.82 276.751C546.995 280.529 560.177 283.888 574.116 286.827C578.734 287.75 583.436 288.674 588.138 289.597C598.297 291.445 608.793 293.124 619.541 294.467C617.441 283.888 615.678 272.972 614.335 261.721Z" fill="url(#paint0_linear_730_426)"/>
<path d="M986.38 186.151C982.014 177.419 974.709 169.19 964.549 161.717C950.275 151.221 930.291 141.901 905.186 134.093C894.69 130.818 883.439 127.879 871.6 125.276C866.898 124.269 862.112 123.261 857.326 122.338C845.319 119.987 832.808 118.055 819.878 116.376C817.61 116.04 815.259 115.788 812.908 115.536C810.641 115.284 808.29 115.033 805.939 114.781C795.108 113.605 783.941 112.682 772.605 111.926C770.338 111.758 767.987 111.674 765.636 111.506C763.369 111.422 761.018 111.254 758.667 111.17C749.431 110.75 740.111 110.498 730.707 110.331C730.539 110.331 730.371 110.331 730.119 110.331C728.02 120.406 726.341 131.07 725.165 142.069H725.753C727.012 142.069 728.356 142.069 729.615 142.069C731.127 142.069 732.554 142.069 734.065 142.153C744.645 142.321 755.141 142.741 765.468 143.329C767.735 143.497 770.002 143.581 772.185 143.749C774.453 143.917 776.72 144.084 778.903 144.252C779.239 146.435 779.574 148.703 779.826 150.97C780.078 153.153 780.414 155.42 780.666 157.687C782.429 173.22 783.353 189.342 783.353 205.547C783.353 221.752 782.429 237.957 780.666 253.407C780.414 255.674 780.162 257.857 779.826 260.124C779.574 262.391 779.239 264.574 778.903 266.841C776.636 267.009 774.369 267.177 772.185 267.345C769.918 267.513 767.651 267.681 765.468 267.765C755.141 268.353 744.645 268.772 734.065 268.94C732.89 268.94 731.714 268.94 730.455 269.024C728.86 269.024 727.18 269.024 725.585 269.108C724.158 269.108 722.646 269.108 721.219 269.108H717.021C702.83 269.024 688.808 268.604 675.038 267.849C676.801 279.1 679.068 289.932 681.755 300.007C692.671 300.511 703.754 300.847 714.921 300.847C716.769 300.847 718.616 300.847 720.547 300.847C721.974 300.847 723.486 300.847 724.913 300.847C725.921 300.847 727.012 300.847 728.02 300.847C731.379 300.847 734.737 300.763 738.096 300.679C745.065 300.511 751.95 300.259 758.835 300.007C761.186 299.923 763.453 299.755 765.804 299.671C768.155 299.504 770.422 299.42 772.689 299.252C784.025 298.496 795.192 297.572 806.023 296.397C808.374 296.145 810.641 295.893 812.992 295.641C815.343 295.389 817.611 295.053 819.962 294.801C835.495 292.786 850.357 290.351 864.547 287.413C869.249 286.405 873.867 285.397 878.401 284.306C887.805 282.039 896.789 279.604 905.27 277.001C930.375 269.192 950.359 259.872 964.633 249.376C974.793 241.904 982.098 233.675 986.464 224.943C989.571 218.729 991.166 212.18 991.166 205.631C991.082 198.83 989.487 192.364 986.38 186.151ZM813.16 160.877C812.908 158.61 812.741 156.343 812.489 154.16C812.237 151.893 811.985 149.626 811.649 147.359C811.817 147.359 812.069 147.359 812.237 147.443C814.336 147.695 816.435 147.947 818.45 148.283C820.717 148.619 822.984 148.87 825.251 149.206C838.854 151.138 851.868 153.489 864.211 156.259C868.913 157.351 873.615 158.358 878.065 159.534C880.92 160.29 883.775 161.045 886.546 161.801C907.705 167.763 925.673 174.9 938.436 182.54C949.351 189.09 954.473 194.631 956.824 198.242C958.336 200.425 959.007 203.028 959.007 205.547C959.007 208.066 958.252 210.669 956.824 212.852C955.649 214.615 953.802 216.882 950.863 219.569C947.924 222.256 943.894 225.279 938.436 228.469C925.673 236.11 907.705 243.247 886.546 249.209C885.034 249.628 883.439 250.048 881.844 250.468C877.477 251.644 872.943 252.735 868.325 253.827C854.807 256.933 840.365 259.62 825.251 261.803C822.984 262.139 820.717 262.475 818.45 262.727C816.351 262.979 814.336 263.231 812.237 263.483C812.069 263.483 811.901 263.567 811.649 263.567C811.901 261.299 812.237 259.116 812.489 256.765C812.741 254.498 812.992 252.315 813.16 250.048C814.588 235.606 815.259 220.66 815.259 205.463C815.259 190.265 814.504 175.319 813.16 160.877Z" fill="url(#paint1_linear_730_426)"/>
<path d="M768.912 312.517C780.416 311.846 791.667 310.922 802.75 309.831C799.392 322.593 795.361 334.6 790.827 345.6C782.767 364.912 773.111 380.277 762.279 391.276C754.974 398.665 746.998 404.123 738.685 407.314C732.556 409.665 726.342 410.924 720.045 410.924C713.831 410.924 707.534 409.749 701.405 407.314C693.092 404.123 685.199 398.665 677.81 391.276C666.895 380.277 657.323 364.912 649.262 345.6C644.644 334.6 640.698 322.593 637.339 309.831C636.752 307.563 636.164 305.296 635.66 303.029C635.156 300.762 634.569 298.495 634.149 296.228C631.882 285.733 629.95 274.817 628.523 263.566C628.187 261.299 627.935 259.116 627.683 256.765C627.432 254.498 627.18 252.315 627.012 250.048C625.584 235.606 624.913 220.66 624.913 205.462C624.913 190.264 625.668 175.403 627.012 160.877C627.264 158.61 627.432 156.343 627.683 154.16C627.935 151.893 628.187 149.625 628.523 147.358C626.256 147.61 623.989 147.946 621.722 148.198C619.455 148.534 617.188 148.786 614.921 149.122C603.753 150.717 593.09 152.564 582.762 154.663C584.106 143.076 585.953 131.909 588.22 121.245C598.548 119.398 609.211 117.719 620.211 116.291C622.478 115.956 624.829 115.704 627.18 115.452C629.447 115.2 631.798 114.948 634.149 114.696C634.653 112.429 635.156 110.162 635.66 107.895C636.248 105.628 636.752 103.277 637.339 101.094C640.698 88.3311 644.728 76.3241 649.262 65.3247C657.323 46.0128 666.979 30.6472 677.81 19.6478C685.115 12.2589 693.092 6.80116 701.405 3.61049C707.534 1.25948 713.747 0 720.045 0C726.342 0 732.556 1.17551 738.685 3.61049C746.998 6.80116 754.89 12.2589 762.279 19.6478C772.355 29.8075 781.423 43.8297 789.064 61.2104C789.652 62.5539 790.239 63.9813 790.827 65.3247C795.445 76.3241 799.392 88.3311 802.75 101.094C791.751 100.002 780.416 99.0786 768.912 98.4069C766.645 91.018 764.21 84.0489 761.44 77.5836C755.814 64.1492 749.181 52.8139 742.212 44.8373C740.28 42.6542 738.349 40.723 736.502 39.0437C766.393 42.0664 788.224 60.4547 788.98 61.1265C733.479 -2.35101 698.466 43.9136 697.794 44.8373C690.825 52.8139 684.192 64.0652 678.566 77.5836C675.879 84.0489 673.36 91.018 671.093 98.4069C670.422 100.59 669.75 102.857 669.162 105.124C668.574 107.307 667.987 109.574 667.399 111.841C669.666 111.673 672.017 111.589 674.368 111.421C676.635 111.337 678.986 111.17 681.337 111.086C692.252 110.582 703.336 110.246 714.503 110.246C715.259 110.246 716.098 110.246 716.854 110.246C714.839 120.406 713.244 131.069 712.068 142.069C699.473 142.237 686.879 142.656 674.62 143.328C672.353 143.496 670.086 143.58 667.903 143.748C665.636 143.916 663.369 144.084 661.185 144.252C660.85 146.435 660.514 148.702 660.262 150.969C660.01 153.152 659.674 155.419 659.422 157.686C657.659 173.22 656.735 189.341 656.735 205.546C656.735 221.751 657.659 237.957 659.422 253.406C659.674 255.673 659.926 257.856 660.262 260.123C660.514 262.39 660.85 264.573 661.185 266.84C662.865 278.092 664.964 288.923 667.567 299.167C668.155 301.434 668.742 303.701 669.33 305.884C670.002 308.151 670.589 310.418 671.261 312.601C673.528 319.99 675.963 326.959 678.734 333.425C684.36 346.859 690.993 358.194 697.962 366.087C705.519 374.735 712.992 379.186 720.213 379.186C727.434 379.186 734.907 374.819 742.463 366.087C749.433 358.11 756.066 346.859 761.691 333.425C764.21 326.875 766.645 319.906 768.912 312.517Z" fill="url(#paint2_linear_730_426)"/>
</g>
<g clip-path="url(#clip1_730_426)">
<path d="M846.916 298.569H797.466V281.373H846.916C848.938 281.373 850.611 279.723 850.611 277.678V250.769H867.807V277.702C867.807 289.204 858.442 298.569 846.916 298.569Z" fill="#02BC82"/>
<path d="M784.406 298.616H728.984V281.42H784.429C786.451 281.42 788.124 279.77 788.124 277.725V250.792H805.32V277.725C805.297 289.251 795.932 298.616 784.406 298.616Z" fill="#02BC82"/>
<path d="M742.787 250.792V285.533C742.787 292.225 740.556 298.825 736.466 304.146L729.704 313H708.07L722.803 293.713C724.592 291.389 725.568 288.461 725.568 285.533V250.792H742.787Z" fill="#02BC82"/>
<path d="M714.158 223H696.962V298.616H714.158V223Z" fill="#02BC82"/>
<path d="M664.638 298.616H592.438V281.42H664.615C666.637 281.42 668.31 279.77 668.31 277.725V250.792H685.506V277.725C685.506 289.251 676.141 298.616 664.638 298.616Z" fill="#02BC82"/>
<path d="M644.863 281.42L647.024 277.097C648.558 274.053 649.348 270.614 649.348 267.198C649.348 255.045 639.448 245.146 627.295 245.146H592.833C581.656 245.146 572.593 254.208 572.593 265.362V278.887C572.593 289.762 581.447 298.616 592.299 298.616H616.977L609.751 312.977H629.015L636.218 298.616H656.575V281.42H644.863ZM631.641 269.383L625.622 281.42H592.299C590.928 281.42 589.789 280.281 589.789 278.887V265.362C589.789 263.689 591.137 262.341 592.833 262.341H627.295C629.967 262.341 632.152 264.526 632.152 267.198C632.152 267.965 631.989 268.732 631.641 269.383Z" fill="#02BC82"/>
<path d="M685.506 223H668.333V240.196H685.506V223Z" fill="#02BC82"/>
<path d="M867.806 240.196H825.374L834.437 223H867.806V240.196Z" fill="#02BC82"/>
<path d="M805.274 240.196H762.841L771.904 223H805.274V240.196Z" fill="#02BC82"/>
</g>
</g>
<defs>
<linearGradient id="paint0_linear_730_426" x1="534.232" y1="124.019" x2="534.232" y2="294.467" gradientUnits="userSpaceOnUse">
<stop stop-color="#D0D7DE"/>
<stop offset="1" stop-color="#D0D7DE" stop-opacity="0"/>
</linearGradient>
<linearGradient id="paint1_linear_730_426" x1="833.102" y1="110.331" x2="833.102" y2="300.847" gradientUnits="userSpaceOnUse">
<stop stop-color="#D0D7DE"/>
<stop offset="1" stop-color="#D0D7DE" stop-opacity="0"/>
</linearGradient>
<linearGradient id="paint2_linear_730_426" x1="692.756" y1="0" x2="692.756" y2="410.924" gradientUnits="userSpaceOnUse">
<stop stop-color="#D0D7DE"/>
<stop offset="1" stop-color="#D0D7DE" stop-opacity="0"/>
</linearGradient>
<clipPath id="clip0_730_426">
<rect width="1440" height="325" fill="white"/>
</clipPath>
<clipPath id="clip1_730_426">
<rect width="295.213" height="90" fill="white" transform="translate(572.594 223)"/>
</clipPath>
</defs>
</svg>
