<svg width="780" height="260" viewBox="0 0 780 260" fill="none" xmlns="http://www.w3.org/2000/svg">
<g clip-path="url(#clip0_730_585)">
<path d="M389.458 260.042C240.605 260.042 104.489 235.621 5.66506e-06 195.241L2.82485e-05 -63.0831L780 -63.083L780 194.822C675.369 235.453 538.826 260.042 389.458 260.042Z" fill="white"/>
<g opacity="0.3">
<path d="M314.88 200.522C306.942 199.388 299.362 198.075 292.02 196.523C288.737 195.866 285.455 195.15 282.291 194.374C278.531 193.479 274.831 192.524 271.309 191.509C256.268 187.272 243.495 182.198 234.423 176.767C226.664 172.111 223.023 168.172 221.351 165.665C220.277 164.054 219.8 162.263 219.8 160.472C219.8 158.682 220.337 156.832 221.351 155.28C222.187 154.026 223.5 152.415 225.589 150.505C227.678 148.595 230.543 146.446 234.423 144.118C243.495 138.687 256.268 133.613 271.309 129.376C274.89 128.361 278.531 127.406 282.291 126.511C283.187 118.274 284.38 110.336 285.873 102.636C276.084 104.725 266.892 107.053 258.357 109.739C240.511 115.29 226.305 121.915 216.159 129.376C208.937 134.688 203.744 140.537 200.64 146.745C198.432 151.161 197.298 155.757 197.298 160.472C197.298 165.128 198.432 169.724 200.64 174.2C203.744 180.408 208.937 186.257 216.159 191.569C226.305 199.03 240.511 205.655 258.357 211.206C267.012 213.892 276.382 216.279 286.29 218.368C289.573 219.025 292.916 219.681 296.258 220.338C303.48 221.651 310.941 222.845 318.581 223.8C317.089 216.279 315.835 208.52 314.88 200.522Z" fill="url(#paint0_linear_730_585)"/>
<path d="M579.349 146.804C576.245 140.596 571.052 134.747 563.83 129.435C553.683 121.974 539.478 115.349 521.632 109.798C514.171 107.47 506.173 105.381 497.757 103.531C494.415 102.815 491.013 102.098 487.611 101.442C479.075 99.7707 470.182 98.3979 460.99 97.2042C459.379 96.9654 457.708 96.7863 456.036 96.6073C454.425 96.4282 452.754 96.2492 451.082 96.0701C443.383 95.2345 435.445 94.578 427.387 94.0408C425.775 93.9214 424.104 93.8617 422.433 93.7423C420.821 93.6827 419.15 93.5633 417.479 93.5036C410.913 93.2052 404.288 93.0261 397.603 92.9067C397.484 92.9067 397.365 92.9067 397.186 92.9067C395.693 100.069 394.5 107.649 393.664 115.468H394.082C394.977 115.468 395.932 115.468 396.827 115.468C397.902 115.468 398.916 115.468 399.991 115.528C407.511 115.647 414.972 115.946 422.314 116.364C423.925 116.483 425.537 116.543 427.088 116.662C428.7 116.781 430.312 116.901 431.863 117.02C432.102 118.572 432.341 120.183 432.52 121.795C432.699 123.347 432.938 124.958 433.117 126.57C434.37 137.612 435.027 149.072 435.027 160.591C435.027 172.111 434.37 183.63 433.117 194.612C432.938 196.224 432.759 197.776 432.52 199.387C432.341 200.999 432.102 202.551 431.863 204.162C430.252 204.282 428.64 204.401 427.088 204.52C425.477 204.64 423.865 204.759 422.314 204.819C414.972 205.237 407.511 205.535 399.991 205.654C399.155 205.654 398.32 205.654 397.424 205.714C396.29 205.714 395.097 205.714 393.962 205.774C392.948 205.774 391.873 205.774 390.859 205.774H387.874C377.787 205.714 367.82 205.416 358.031 204.879C359.285 212.876 360.896 220.576 362.806 227.738C370.565 228.097 378.444 228.335 386.382 228.335C387.695 228.335 389.009 228.335 390.381 228.335C391.396 228.335 392.47 228.335 393.485 228.335C394.201 228.335 394.977 228.335 395.693 228.335C398.081 228.335 400.468 228.276 402.856 228.216C407.81 228.097 412.704 227.917 417.598 227.738C419.27 227.679 420.881 227.559 422.552 227.5C424.224 227.38 425.835 227.321 427.447 227.201C435.504 226.664 443.443 226.008 451.142 225.172C452.813 224.993 454.425 224.814 456.096 224.635C457.767 224.456 459.379 224.217 461.05 224.038C472.092 222.605 482.657 220.874 492.744 218.785C496.086 218.069 499.369 217.353 502.592 216.577C509.277 214.966 515.663 213.235 521.691 211.384C539.538 205.834 553.743 199.208 563.89 191.747C571.112 186.435 576.305 180.586 579.408 174.379C581.617 169.962 582.751 165.306 582.751 160.651C582.691 155.816 581.557 151.22 579.349 146.804ZM456.215 128.838C456.036 127.226 455.917 125.615 455.738 124.063C455.559 122.452 455.38 120.84 455.141 119.228C455.26 119.228 455.44 119.228 455.559 119.288C457.051 119.467 458.543 119.646 459.976 119.885C461.587 120.124 463.199 120.303 464.81 120.542C474.479 121.914 483.731 123.586 492.505 125.555C495.847 126.331 499.19 127.047 502.353 127.883C504.382 128.42 506.412 128.957 508.381 129.495C523.422 133.732 536.195 138.806 545.268 144.237C553.027 148.893 556.668 152.832 558.339 155.398C559.413 156.95 559.891 158.801 559.891 160.591C559.891 162.382 559.354 164.232 558.339 165.784C557.503 167.037 556.19 168.649 554.101 170.559C552.012 172.469 549.147 174.617 545.268 176.886C536.195 182.317 523.422 187.39 508.381 191.628C507.307 191.927 506.173 192.225 505.039 192.523C501.935 193.359 498.712 194.135 495.429 194.911C485.82 197.119 475.554 199.029 464.81 200.581C463.199 200.82 461.587 201.059 459.976 201.238C458.484 201.417 457.051 201.596 455.559 201.775C455.44 201.775 455.32 201.835 455.141 201.835C455.32 200.223 455.559 198.671 455.738 197C455.917 195.388 456.096 193.837 456.215 192.225C457.23 181.959 457.708 171.335 457.708 160.531C457.708 149.728 457.17 139.104 456.215 128.838Z" fill="url(#paint1_linear_730_585)"/>
<path d="M424.76 236.632C432.937 236.155 440.935 235.498 448.814 234.722C446.427 243.795 443.562 252.33 440.339 260.149C434.609 273.877 427.745 284.799 420.045 292.618C414.852 297.871 409.182 301.75 403.273 304.018C398.916 305.69 394.499 306.585 390.023 306.585C385.606 306.585 381.13 305.749 376.772 304.018C370.864 301.75 365.253 297.871 360.001 292.618C352.241 284.799 345.437 273.877 339.707 260.149C336.424 252.33 333.619 243.795 331.232 234.722C330.814 233.111 330.396 231.499 330.038 229.888C329.68 228.276 329.262 226.665 328.964 225.053C327.352 217.592 325.979 209.833 324.965 201.835C324.726 200.224 324.547 198.672 324.368 197.001C324.189 195.389 324.01 193.837 323.89 192.226C322.876 181.96 322.398 171.335 322.398 160.532C322.398 149.729 322.935 139.164 323.89 128.839C324.069 127.227 324.189 125.616 324.368 124.064C324.547 122.452 324.726 120.841 324.965 119.229C323.353 119.408 321.742 119.647 320.13 119.826C318.519 120.065 316.907 120.244 315.295 120.483C307.357 121.617 299.777 122.93 292.436 124.422C293.391 116.185 294.704 108.247 296.315 100.667C303.657 99.3536 311.237 98.1599 319.056 97.1452C320.667 96.9065 322.338 96.7274 324.01 96.5483C325.621 96.3693 327.292 96.1902 328.964 96.0112C329.322 94.3996 329.68 92.7881 330.038 91.1766C330.456 89.565 330.814 87.8938 331.232 86.342C333.619 77.2696 336.484 68.7345 339.707 60.9155C345.437 47.1877 352.301 36.265 360.001 28.4461C365.193 23.1937 370.864 19.3141 376.772 17.046C381.13 15.3748 385.546 14.4795 390.023 14.4795C394.499 14.4795 398.916 15.3151 403.273 17.046C409.182 19.3141 414.793 23.1937 420.045 28.4461C427.208 35.6682 433.654 45.6358 439.085 57.9909C439.503 58.9459 439.921 59.9606 440.339 60.9155C443.621 68.7345 446.427 77.2696 448.814 86.342C440.995 85.5661 432.937 84.9095 424.76 84.432C423.149 79.1796 421.418 74.2256 419.448 69.6298C415.449 60.0799 410.734 52.0223 405.78 46.3521C404.407 44.8002 403.035 43.4274 401.721 42.2337C422.97 44.3824 438.488 57.4537 439.025 57.9312C399.573 12.8083 374.683 45.6955 374.206 46.3521C369.252 52.0223 364.537 60.0202 360.538 69.6298C358.628 74.2256 356.837 79.1796 355.226 84.432C354.748 85.9839 354.271 87.5954 353.853 89.2069C353.435 90.7588 353.017 92.3703 352.599 93.9818C354.211 93.8625 355.882 93.8028 357.553 93.6834C359.165 93.6237 360.836 93.5043 362.507 93.4447C370.267 93.0865 378.145 92.8478 386.084 92.8478C386.621 92.8478 387.218 92.8478 387.755 92.8478C386.322 100.07 385.188 107.65 384.353 115.469C375.4 115.588 366.447 115.887 357.733 116.364C356.121 116.484 354.509 116.543 352.958 116.663C351.346 116.782 349.735 116.901 348.183 117.021C347.944 118.573 347.705 120.184 347.526 121.796C347.347 123.348 347.108 124.959 346.929 126.571C345.676 137.613 345.019 149.072 345.019 160.592C345.019 172.111 345.676 183.631 346.929 194.613C347.108 196.225 347.287 197.777 347.526 199.388C347.705 201 347.944 202.551 348.183 204.163C349.376 212.161 350.869 219.861 352.719 227.142C353.137 228.754 353.554 230.365 353.972 231.917C354.45 233.529 354.868 235.14 355.345 236.692C356.957 241.945 358.687 246.899 360.657 251.494C364.656 261.044 369.371 269.102 374.325 274.712C379.697 280.86 385.009 284.024 390.142 284.024C395.275 284.024 400.587 280.92 405.959 274.712C410.913 269.042 415.628 261.044 419.627 251.494C421.418 246.839 423.149 241.885 424.76 236.632Z" fill="url(#paint2_linear_730_585)"/>
</g>
<g clip-path="url(#clip1_730_585)">
<path d="M480.211 226.717H445.06V214.493H480.211C481.648 214.493 482.838 213.32 482.838 211.866V192.738H495.061V211.883C495.061 220.06 488.404 226.717 480.211 226.717Z" fill="#02BC82"/>
<path d="M435.776 226.75H396.379V214.526H435.792C437.229 214.526 438.419 213.353 438.419 211.899V192.754H450.642V211.899C450.626 220.093 443.969 226.75 435.776 226.75Z" fill="#02BC82"/>
<path d="M406.19 192.754V217.45C406.19 222.207 404.605 226.898 401.697 230.681L396.891 236.975H381.512L391.985 223.264C393.256 221.612 393.95 219.531 393.95 217.45V192.754H406.19Z" fill="#02BC82"/>
<path d="M385.84 172.998H373.616V226.75H385.84V172.998Z" fill="#02BC82"/>
<path d="M350.639 226.75H299.315V214.526H350.622C352.059 214.526 353.249 213.353 353.249 211.899V192.754H365.472V211.899C365.472 220.093 358.815 226.75 350.639 226.75Z" fill="#02BC82"/>
<path d="M336.582 214.525L338.118 211.453C339.208 209.289 339.77 206.844 339.77 204.416C339.77 195.777 332.733 188.74 324.094 188.74H299.597C291.651 188.74 285.209 195.182 285.209 203.111V212.725C285.209 220.455 291.503 226.749 299.217 226.749H316.759L311.622 236.958H325.316L330.437 226.749H344.907V214.525H336.582ZM327.183 205.969L322.904 214.525H299.217C298.242 214.525 297.433 213.716 297.433 212.725V203.111C297.433 201.922 298.391 200.964 299.597 200.964H324.094C325.993 200.964 327.546 202.516 327.546 204.416C327.546 204.961 327.43 205.506 327.183 205.969Z" fill="#02BC82"/>
<path d="M365.474 172.998H353.267V185.222H365.474V172.998Z" fill="#02BC82"/>
<path d="M495.061 185.222H464.898L471.341 172.998H495.061V185.222Z" fill="#02BC82"/>
<path d="M450.609 185.222H420.446L426.889 172.998H450.609V185.222Z" fill="#02BC82"/>
</g>
</g>
<defs>
<linearGradient id="paint0_linear_730_585" x1="257.939" y1="102.636" x2="257.939" y2="223.8" gradientUnits="userSpaceOnUse">
<stop stop-color="#D0D7DE"/>
<stop offset="1" stop-color="#D0D7DE" stop-opacity="0"/>
</linearGradient>
<linearGradient id="paint1_linear_730_585" x1="470.391" y1="92.9067" x2="470.391" y2="228.335" gradientUnits="userSpaceOnUse">
<stop stop-color="#D0D7DE"/>
<stop offset="1" stop-color="#D0D7DE" stop-opacity="0"/>
</linearGradient>
<linearGradient id="paint2_linear_730_585" x1="370.625" y1="14.4795" x2="370.625" y2="306.585" gradientUnits="userSpaceOnUse">
<stop stop-color="#D0D7DE"/>
<stop offset="1" stop-color="#D0D7DE" stop-opacity="0"/>
</linearGradient>
<clipPath id="clip0_730_585">
<rect width="780" height="260" fill="white"/>
</clipPath>
<clipPath id="clip1_730_585">
<rect width="209.852" height="63.9765" fill="white" transform="translate(285.209 172.998)"/>
</clipPath>
</defs>
</svg>
