<svg width="390" height="190" viewBox="0 0 390 190" fill="none" xmlns="http://www.w3.org/2000/svg">
<g clip-path="url(#clip0_730_448)">
<path d="M194.729 190.021C120.303 190.021 52.2446 177.81 2.83262e-06 157.62L1.65721e-05 0.458462L390 0.458496L390 157.412C337.685 177.727 269.413 190.021 194.729 190.021Z" fill="white"/>
<g opacity="0.3">
<path d="M138.752 150.846C132.828 150 127.171 149.02 121.692 147.862C119.242 147.372 116.792 146.837 114.431 146.258C111.625 145.59 108.863 144.877 106.235 144.12C95.0098 140.957 85.4773 137.171 78.7066 133.118C72.9158 129.643 70.1986 126.703 68.9514 124.832C68.1496 123.63 67.7932 122.293 67.7932 120.957C67.7932 119.621 68.1941 118.24 68.9514 117.082C69.575 116.146 70.555 114.943 72.114 113.518C73.6731 112.093 75.8112 110.489 78.7066 108.752C85.4773 104.698 95.0098 100.912 106.235 97.7493C108.908 96.9921 111.625 96.2794 114.431 95.6112C115.099 89.4641 115.99 83.5397 117.104 77.7935C109.799 79.3525 102.939 81.0897 96.5689 83.0942C83.2501 87.2369 72.6485 92.1813 65.076 97.7493C59.6861 101.714 55.8108 106.079 53.4945 110.712C51.8463 114.008 51 117.438 51 120.957C51 124.431 51.8463 127.861 53.4945 131.202C55.8108 135.835 59.6861 140.2 65.076 144.165C72.6485 149.733 83.2501 154.677 96.5689 158.82C103.028 160.824 110.021 162.606 117.416 164.165C119.866 164.655 122.36 165.145 124.855 165.635C130.244 166.615 135.812 167.506 141.514 168.218C140.4 162.606 139.465 156.815 138.752 150.846Z" fill="url(#paint0_linear_730_448)"/>
<path d="M336.126 110.756C333.81 106.123 329.935 101.758 324.545 97.7934C316.972 92.2253 306.371 87.2809 293.052 83.1383C287.484 81.401 281.515 79.842 275.234 78.4611C272.74 77.9266 270.201 77.392 267.662 76.9021C261.292 75.6548 254.655 74.6303 247.795 73.7394C246.592 73.5612 245.345 73.4276 244.098 73.294C242.895 73.1603 241.648 73.0267 240.401 72.8931C234.654 72.2695 228.73 71.7795 222.717 71.3786C221.514 71.2895 220.267 71.2449 219.019 71.1558C217.817 71.1113 216.569 71.0222 215.322 70.9777C210.422 70.7549 205.478 70.6213 200.489 70.5322C200.4 70.5322 200.311 70.5322 200.177 70.5322C199.064 75.8775 198.173 81.5347 197.549 87.37H197.861C198.529 87.37 199.242 87.37 199.91 87.37C200.712 87.37 201.469 87.37 202.271 87.4145C207.883 87.5036 213.451 87.7263 218.93 88.0381C220.133 88.1272 221.336 88.1718 222.494 88.2609C223.697 88.35 224.899 88.439 226.057 88.5281C226.236 89.6863 226.414 90.889 226.547 92.0917C226.681 93.2498 226.859 94.4525 226.993 95.6552C227.928 103.896 228.418 112.448 228.418 121.046C228.418 129.643 227.928 138.24 226.993 146.436C226.859 147.638 226.726 148.797 226.547 149.999C226.414 151.202 226.236 152.36 226.057 153.563C224.855 153.652 223.652 153.741 222.494 153.83C221.291 153.919 220.088 154.008 218.93 154.053C213.451 154.365 207.883 154.587 202.271 154.676C201.647 154.676 201.023 154.676 200.355 154.721C199.509 154.721 198.618 154.721 197.772 154.766C197.014 154.766 196.213 154.766 195.455 154.766H193.228C185.7 154.721 178.261 154.498 170.956 154.097C171.891 160.066 173.094 165.813 174.52 171.158C180.31 171.425 186.19 171.603 192.115 171.603C193.095 171.603 194.075 171.603 195.099 171.603C195.856 171.603 196.658 171.603 197.415 171.603C197.95 171.603 198.529 171.603 199.064 171.603C200.845 171.603 202.627 171.559 204.409 171.514C208.106 171.425 211.759 171.292 215.411 171.158C216.659 171.113 217.861 171.024 219.108 170.98C220.356 170.891 221.558 170.846 222.761 170.757C228.775 170.356 234.699 169.866 240.445 169.242C241.692 169.109 242.895 168.975 244.142 168.842C245.39 168.708 246.592 168.53 247.84 168.396C256.08 167.327 263.965 166.035 271.493 164.476C273.987 163.942 276.437 163.407 278.842 162.828C283.831 161.625 288.598 160.334 293.097 158.953C306.415 154.81 317.017 149.866 324.589 144.298C329.979 140.333 333.855 135.968 336.171 131.335C337.819 128.039 338.665 124.565 338.665 121.09C338.621 117.482 337.775 114.052 336.126 110.756ZM244.231 97.3479C244.098 96.1452 244.009 94.9425 243.875 93.7844C243.742 92.5817 243.608 91.379 243.43 90.1763C243.519 90.1763 243.652 90.1763 243.741 90.2208C244.855 90.3544 245.969 90.4881 247.038 90.6663C248.24 90.8444 249.443 90.9781 250.646 91.1563C257.862 92.1808 264.766 93.428 271.314 94.898C273.809 95.477 276.303 96.0116 278.664 96.6352C280.179 97.0361 281.693 97.437 283.163 97.8379C294.388 101.001 303.921 104.787 310.692 108.84C316.482 112.315 319.2 115.255 320.447 117.17C321.249 118.328 321.605 119.709 321.605 121.046C321.605 122.382 321.204 123.763 320.447 124.921C319.823 125.856 318.843 127.059 317.284 128.484C315.725 129.91 313.587 131.513 310.692 133.206C303.921 137.26 294.388 141.046 283.163 144.209C282.361 144.431 281.515 144.654 280.669 144.877C278.352 145.5 275.947 146.079 273.497 146.658C266.325 148.307 258.664 149.732 250.646 150.89C249.443 151.068 248.24 151.247 247.038 151.38C245.924 151.514 244.855 151.647 243.741 151.781C243.652 151.781 243.563 151.826 243.43 151.826C243.563 150.623 243.742 149.465 243.875 148.218C244.009 147.015 244.142 145.857 244.231 144.654C244.989 136.992 245.345 129.063 245.345 121.001C245.345 112.938 244.944 105.01 244.231 97.3479Z" fill="url(#paint1_linear_730_448)"/>
<path d="M220.758 177.794C226.86 177.438 232.829 176.948 238.709 176.369C236.927 183.139 234.789 189.509 232.384 195.345C228.108 205.59 222.985 213.741 217.239 219.577C213.363 223.497 209.132 226.392 204.722 228.085C201.47 229.332 198.174 230 194.833 230C191.537 230 188.196 229.376 184.944 228.085C180.534 226.392 176.347 223.497 172.427 219.577C166.636 213.741 161.558 205.59 157.282 195.345C154.832 189.509 152.739 183.139 150.957 176.369C150.645 175.166 150.333 173.963 150.066 172.761C149.799 171.558 149.487 170.355 149.264 169.152C148.061 163.584 147.037 157.794 146.28 151.825C146.101 150.622 145.968 149.464 145.834 148.217C145.701 147.014 145.567 145.856 145.478 144.653C144.721 136.991 144.364 129.063 144.364 121C144.364 112.937 144.765 105.053 145.478 97.3469C145.611 96.1443 145.701 94.9416 145.834 93.7834C145.968 92.5807 146.101 91.378 146.28 90.1753C145.077 90.3089 143.874 90.4871 142.671 90.6208C141.469 90.7989 140.266 90.9326 139.063 91.1107C133.139 91.9571 127.482 92.9371 122.003 94.0507C122.716 87.9036 123.696 81.9792 124.898 76.322C130.377 75.3421 136.034 74.4512 141.87 73.6939C143.072 73.5157 144.32 73.3821 145.567 73.2485C146.77 73.1148 148.017 72.9812 149.264 72.8476C149.531 71.6449 149.799 70.4422 150.066 69.2395C150.378 68.0368 150.645 66.7895 150.957 65.6314C152.739 58.8606 154.877 52.4908 157.282 46.6555C161.558 36.4103 166.681 28.2587 172.427 22.4234C176.302 18.5035 180.534 15.6081 184.944 13.9154C188.196 12.6682 191.492 12 194.833 12C198.174 12 201.47 12.6236 204.722 13.9154C209.132 15.6081 213.319 18.5035 217.239 22.4234C222.584 27.8132 227.395 35.2521 231.448 44.4728C231.76 45.1855 232.072 45.9428 232.384 46.6555C234.834 52.4908 236.927 58.8606 238.709 65.6314C232.874 65.0523 226.86 64.5623 220.758 64.206C219.555 60.2861 218.263 56.5889 216.793 53.159C213.809 46.0319 210.29 40.0184 206.593 35.7867C205.568 34.6285 204.544 33.604 203.564 32.7131C219.421 34.3167 231.003 44.0719 231.404 44.4283C201.96 10.7528 183.385 35.2967 183.029 35.7867C179.331 40.0184 175.812 45.9873 172.828 53.159C171.403 56.5889 170.066 60.2861 168.864 64.206C168.507 65.3641 168.151 66.5668 167.839 67.7695C167.527 68.9277 167.215 70.1304 166.904 71.3331C168.106 71.244 169.354 71.1994 170.601 71.1103C171.803 71.0658 173.051 70.9767 174.298 70.9322C180.089 70.6649 185.969 70.4867 191.893 70.4867C192.294 70.4867 192.739 70.4867 193.14 70.4867C192.071 75.8766 191.225 81.5337 190.601 87.369C183.92 87.4581 177.238 87.6808 170.734 88.0372C169.532 88.1263 168.329 88.1708 167.171 88.2599C165.968 88.349 164.765 88.4381 163.607 88.5272C163.429 89.6853 163.251 90.888 163.117 92.0907C162.984 93.2489 162.806 94.4516 162.672 95.6543C161.736 103.895 161.246 112.447 161.246 121.045C161.246 129.642 161.736 138.239 162.672 146.435C162.806 147.638 162.939 148.796 163.117 149.998C163.251 151.201 163.429 152.359 163.607 153.562C164.498 159.531 165.612 165.277 166.993 170.711C167.305 171.914 167.616 173.117 167.928 174.275C168.284 175.478 168.596 176.68 168.953 177.839C170.155 181.758 171.447 185.456 172.917 188.886C175.902 196.013 179.421 202.026 183.118 206.213C187.127 210.801 191.091 213.162 194.922 213.162C198.753 213.162 202.717 210.846 206.726 206.213C210.423 201.982 213.942 196.013 216.927 188.886C218.263 185.411 219.555 181.714 220.758 177.794Z" fill="url(#paint2_linear_730_448)"/>
</g>
<g clip-path="url(#clip1_730_448)">
<path d="M260.815 167.464H235.019V158.484H260.815C261.869 158.484 262.742 157.622 262.742 156.554V142.501H271.712V156.566C271.712 162.573 266.827 167.464 260.815 167.464Z" fill="#02BC82"/>
<path d="M228.205 167.488H199.294V158.508H228.217C229.272 158.508 230.145 157.646 230.145 156.578V142.514H239.115V156.578C239.103 162.598 234.218 167.488 228.205 167.488Z" fill="#02BC82"/>
<path d="M206.495 142.514V160.656C206.495 164.151 205.332 167.597 203.198 170.376L199.67 175H188.385L196.07 164.928C197.004 163.714 197.513 162.185 197.513 160.656V142.514H206.495Z" fill="#02BC82"/>
<path d="M191.56 128H182.59V167.488H191.56V128Z" fill="#02BC82"/>
<path d="M165.728 167.488H128.064V158.508H165.716C166.771 158.508 167.643 157.646 167.643 156.578V142.514H176.614V156.578C176.614 162.598 171.728 167.488 165.728 167.488Z" fill="#02BC82"/>
<path d="M155.412 158.508L156.539 156.251C157.339 154.661 157.751 152.865 157.751 151.081C157.751 144.735 152.587 139.565 146.247 139.565H128.27C122.44 139.565 117.712 144.298 117.712 150.123V157.185C117.712 162.865 122.33 167.488 127.992 167.488H140.865L137.095 174.988H147.145L150.902 167.488H161.521V158.508H155.412ZM148.514 152.222L145.375 158.508H127.992C127.276 158.508 126.682 157.914 126.682 157.185V150.123C126.682 149.249 127.385 148.545 128.27 148.545H146.247C147.642 148.545 148.781 149.686 148.781 151.081C148.781 151.482 148.696 151.882 148.514 152.222Z" fill="#02BC82"/>
<path d="M176.614 128H167.655V136.98H176.614V128Z" fill="#02BC82"/>
<path d="M271.712 136.98H249.577L254.305 128H271.712V136.98Z" fill="#02BC82"/>
<path d="M239.091 136.98H216.956L221.684 128H239.091V136.98Z" fill="#02BC82"/>
</g>
</g>
<defs>
<linearGradient id="paint0_linear_730_448" x1="96.257" y1="77.7935" x2="96.257" y2="168.218" gradientUnits="userSpaceOnUse">
<stop stop-color="#D0D7DE"/>
<stop offset="1" stop-color="#D0D7DE" stop-opacity="0"/>
</linearGradient>
<linearGradient id="paint1_linear_730_448" x1="254.811" y1="70.5322" x2="254.811" y2="171.603" gradientUnits="userSpaceOnUse">
<stop stop-color="#D0D7DE"/>
<stop offset="1" stop-color="#D0D7DE" stop-opacity="0"/>
</linearGradient>
<linearGradient id="paint2_linear_730_448" x1="180.356" y1="12" x2="180.356" y2="230" gradientUnits="userSpaceOnUse">
<stop stop-color="#D0D7DE"/>
<stop offset="1" stop-color="#D0D7DE" stop-opacity="0"/>
</linearGradient>
<clipPath id="clip0_730_448">
<rect width="390" height="190" fill="white"/>
</clipPath>
<clipPath id="clip1_730_448">
<rect width="154" height="47" fill="white" transform="translate(117.712 128)"/>
</clipPath>
</defs>
</svg>
