<svg width="89" height="110" viewBox="0 0 89 110" fill="none" xmlns="http://www.w3.org/2000/svg">
<path d="M26.8719 42.5176C25.0577 42.2584 23.3253 41.9583 21.6475 41.6036C20.8973 41.4536 20.1471 41.2899 19.4241 41.1126C18.5648 40.908 17.7191 40.6897 16.9143 40.4578C13.4768 39.4894 10.5578 38.3299 8.48441 37.0886C6.71114 36.0247 5.87907 35.1244 5.49714 34.5515C5.25161 34.1832 5.14248 33.774 5.14248 33.3648C5.14248 32.9555 5.26525 32.5327 5.49714 32.178C5.6881 31.8916 5.9882 31.5233 6.46561 31.0868C6.94303 30.6503 7.59778 30.1592 8.48441 29.6273C10.5578 28.386 13.4768 27.2265 16.9143 26.258C17.7327 26.0261 18.5648 25.8079 19.4241 25.6033C19.6287 23.7209 19.9015 21.9067 20.2426 20.1471C18.0055 20.6245 15.9049 21.1565 13.9543 21.7703C9.87575 23.0389 6.6293 24.553 4.31041 26.258C2.6599 27.472 1.47318 28.8088 0.76387 30.2274C0.25917 31.2368 0 32.2872 0 33.3648C0 34.4287 0.25917 35.479 0.76387 36.5021C1.47318 37.9207 2.6599 39.2575 4.31041 40.4715C6.6293 42.1765 9.87575 43.6906 13.9543 44.9592C15.9321 45.573 18.0737 46.1187 20.338 46.5961C21.0883 46.7461 21.8521 46.8962 22.616 47.0462C24.2665 47.3463 25.9716 47.6191 27.7176 47.8374C27.3766 46.1187 27.0901 44.3454 26.8719 42.5176Z" fill="#292D32"/>
<path d="M87.3125 30.2411C86.6032 28.8225 85.4165 27.4857 83.766 26.2717C81.4471 24.5666 78.2006 23.0525 74.1221 21.7839C72.417 21.252 70.5892 20.7745 68.6659 20.3517C67.902 20.188 67.1245 20.0243 66.347 19.8743C64.3964 19.4923 62.364 19.1786 60.2633 18.9058C59.895 18.8512 59.5131 18.8103 59.1312 18.7694C58.7629 18.7285 58.3809 18.6875 57.999 18.6466C56.2394 18.4557 54.4252 18.3056 52.5837 18.1828C52.2154 18.1556 51.8335 18.1419 51.4515 18.1146C51.0832 18.101 50.7013 18.0737 50.3194 18.0601C48.8189 17.9919 47.3048 17.951 45.7771 17.9237C45.7498 17.9237 45.7225 17.9237 45.6816 17.9237C45.3406 19.5605 45.0678 21.2929 44.8768 23.0798H44.9723C45.1769 23.0798 45.3951 23.0798 45.5997 23.0798C45.8453 23.0798 46.0772 23.0798 46.3227 23.0934C48.0414 23.1207 49.7465 23.1889 51.4243 23.2844C51.7926 23.3117 52.1608 23.3253 52.5155 23.3526C52.8838 23.3799 53.2521 23.4072 53.6067 23.4345C53.6613 23.7891 53.7159 24.1574 53.7568 24.5257C53.7977 24.8803 53.8523 25.2486 53.8932 25.6169C54.1796 28.1404 54.3297 30.7594 54.3297 33.392C54.3297 36.0247 54.1796 38.6573 53.8932 41.1671C53.8523 41.5354 53.8114 41.8901 53.7568 42.2584C53.7159 42.6267 53.6613 42.9813 53.6067 43.3496C53.2384 43.3769 52.8702 43.4042 52.5155 43.4315C52.1472 43.4588 51.7789 43.486 51.4243 43.4997C49.7465 43.5952 48.0414 43.6634 46.3227 43.6906C46.1317 43.6906 45.9408 43.6906 45.7362 43.7043C45.477 43.7043 45.2042 43.7043 44.945 43.7179C44.7131 43.7179 44.4676 43.7179 44.2357 43.7179H43.5537C41.2484 43.7043 38.9704 43.6361 36.7334 43.5133C37.0198 45.3412 37.3881 47.1008 37.8246 48.7376C39.5979 48.8195 41.3985 48.8741 43.2127 48.8741C43.5127 48.8741 43.8128 48.8741 44.1266 48.8741C44.3585 48.8741 44.604 48.8741 44.8359 48.8741C44.9996 48.8741 45.1769 48.8741 45.3406 48.8741C45.8862 48.8741 46.4318 48.8604 46.9774 48.8468C48.1096 48.8195 49.2281 48.7786 50.3467 48.7376C50.7286 48.724 51.0969 48.6967 51.4788 48.6831C51.8608 48.6558 52.2291 48.6422 52.5973 48.6149C54.4388 48.4921 56.253 48.3421 58.0126 48.1511C58.3946 48.1102 58.7629 48.0693 59.1448 48.0283C59.5267 47.9874 59.895 47.9329 60.277 47.8919C62.8005 47.5646 65.2148 47.169 67.5201 46.6916C68.284 46.5279 69.0342 46.3642 69.7708 46.1869C71.2985 45.8186 72.7581 45.423 74.1357 45.0001C78.2143 43.7316 81.4607 42.2175 83.7796 40.5124C85.4301 39.2984 86.6168 37.9616 87.3261 36.543C87.8308 35.5336 88.09 34.4696 88.09 33.4057C88.0764 32.3008 87.8172 31.2505 87.3125 30.2411ZM59.1721 26.1353C59.1312 25.767 59.1039 25.3987 59.063 25.044C59.022 24.6757 58.9811 24.3074 58.9266 23.9391C58.9538 23.9391 58.9948 23.9391 59.022 23.9528C59.363 23.9937 59.7041 24.0346 60.0314 24.0892C60.3997 24.1438 60.768 24.1847 61.1363 24.2392C63.3461 24.553 65.4604 24.9349 67.4655 25.385C68.2294 25.5624 68.9933 25.7261 69.7162 25.917C70.18 26.0398 70.6438 26.1626 71.0939 26.2853C74.5313 27.2538 77.4504 28.4132 79.5238 29.6545C81.297 30.7185 82.1291 31.6188 82.511 32.2053C82.7566 32.56 82.8657 32.9828 82.8657 33.392C82.8657 33.8013 82.7429 34.2241 82.511 34.5788C82.3201 34.8652 82.02 35.2335 81.5426 35.67C81.0651 36.1065 80.4104 36.5976 79.5238 37.1159C77.4504 38.3572 74.5313 39.5166 71.0939 40.4851C70.8484 40.5533 70.5892 40.6215 70.33 40.6897C69.6207 40.8807 68.8841 41.058 68.1339 41.2354C65.9378 41.7401 63.5916 42.1765 61.1363 42.5312C60.768 42.5858 60.3997 42.6403 60.0314 42.6812C59.6904 42.7222 59.363 42.7631 59.022 42.804C58.9948 42.804 58.9675 42.8177 58.9266 42.8177C58.9675 42.4494 59.022 42.0947 59.063 41.7128C59.1039 41.3445 59.1448 40.9898 59.1721 40.6215C59.404 38.2754 59.5131 35.8473 59.5131 33.3784C59.5131 30.9095 59.3903 28.4814 59.1721 26.1353Z" fill="#292D32"/>
<path d="M51.9837 50.7701C53.8525 50.661 55.6803 50.5109 57.4809 50.3336C56.9353 52.4069 56.2805 54.3575 55.5439 56.1445C54.2344 59.2818 52.6658 61.778 50.9061 63.5649C49.7194 64.7653 48.4236 65.6519 47.0732 66.1702C46.0774 66.5522 45.068 66.7568 44.045 66.7568C43.0356 66.7568 42.0125 66.5658 41.0167 66.1702C39.6663 65.6519 38.3841 64.7653 37.1838 63.5649C35.4105 61.778 33.8555 59.2818 32.546 56.1445C31.7958 54.3575 31.1546 52.4069 30.609 50.3336C30.5135 49.9653 30.4181 49.597 30.3362 49.2287C30.2544 48.8604 30.1589 48.4921 30.0907 48.1238C29.7224 46.4187 29.4087 44.6455 29.1768 42.8176C29.1222 42.4494 29.0813 42.0947 29.0404 41.7128C28.9994 41.3445 28.9585 40.9898 28.9312 40.6215C28.6994 38.2753 28.5902 35.8473 28.5902 33.3784C28.5902 30.9095 28.713 28.4951 28.9312 26.1353C28.9722 25.767 28.9994 25.3987 29.0404 25.044C29.0813 24.6757 29.1222 24.3074 29.1768 23.9391C28.8085 23.9801 28.4402 24.0346 28.0719 24.0755C27.7036 24.1301 27.3353 24.171 26.967 24.2256C25.1528 24.4848 23.4205 24.7849 21.7427 25.1259C21.9609 23.2435 22.261 21.4293 22.6293 19.6969C24.3071 19.3968 26.0394 19.124 27.8264 18.8921C28.1946 18.8376 28.5766 18.7967 28.9585 18.7557C29.3268 18.7148 29.7087 18.6739 30.0907 18.633C30.1725 18.2647 30.2544 17.8964 30.3362 17.5281C30.4317 17.1598 30.5135 16.7779 30.609 16.4232C31.1546 14.3498 31.8094 12.3992 32.546 10.6123C33.8555 7.47501 35.4241 4.97879 37.1838 3.19188C38.3705 1.99152 39.6663 1.10488 41.0167 0.586543C42.0125 0.204608 43.0219 0 44.045 0C45.068 0 46.0774 0.190968 47.0732 0.586543C48.4236 1.10488 49.7058 1.99152 50.9061 3.19188C52.543 4.84239 54.0162 7.12036 55.2575 9.94395C55.353 10.1622 55.4484 10.3941 55.5439 10.6123C56.2941 12.3992 56.9353 14.3498 57.4809 16.4232C55.694 16.2459 53.8525 16.0958 51.9837 15.9867C51.6154 14.7863 51.2199 13.6542 50.7697 12.6039C49.8558 10.4214 48.7782 8.5799 47.6461 7.28405C47.3323 6.92939 47.0186 6.61566 46.7185 6.34285C51.5745 6.83391 55.1211 9.82119 55.2438 9.93031C46.2274 -0.381934 40.5393 7.134 40.4302 7.28405C39.298 8.5799 38.2204 10.4077 37.3065 12.6039C36.87 13.6542 36.4608 14.7863 36.0925 15.9867C35.9834 16.3414 35.8743 16.7097 35.7788 17.078C35.6833 17.4326 35.5878 17.8009 35.4923 18.1692C35.8606 18.1419 36.2426 18.1283 36.6245 18.101C36.9928 18.0874 37.3747 18.0601 37.7567 18.0464C39.5299 17.9646 41.3305 17.91 43.1447 17.91C43.2674 17.91 43.4038 17.91 43.5266 17.91C43.1992 19.5605 42.9401 21.2929 42.7491 23.0798C40.703 23.1071 38.6569 23.1753 36.6654 23.2844C36.2971 23.3117 35.9288 23.3253 35.5742 23.3526C35.2059 23.3799 34.8376 23.4072 34.4829 23.4344C34.4284 23.7891 34.3738 24.1574 34.3329 24.5257C34.292 24.8803 34.2374 25.2486 34.1965 25.6169C33.91 28.1404 33.76 30.7594 33.76 33.392C33.76 36.0247 33.91 38.6573 34.1965 41.1671C34.2374 41.5354 34.2783 41.8901 34.3329 42.2584C34.3738 42.6267 34.4284 42.9813 34.4829 43.3496C34.7557 45.1775 35.0968 46.9371 35.5196 48.6012C35.6151 48.9695 35.7106 49.3378 35.8061 49.6925C35.9152 50.0608 36.0107 50.4291 36.1198 50.7837C36.4881 51.9841 36.8837 53.1163 37.3338 54.1666C38.2477 56.3491 39.3253 58.1905 40.4575 59.4727C41.6851 60.8777 42.8991 61.6007 44.0722 61.6007C45.2453 61.6007 46.4593 60.8914 47.687 59.4727C48.8191 58.1769 49.8967 56.3491 50.8107 54.1666C51.2199 53.1026 51.6154 51.9704 51.9837 50.7701Z" fill="#292D32"/>
<g clip-path="url(#clip0_789_399)">
<path d="M81.7704 104.86H67.0303V99.6416H81.7704C82.373 99.6416 82.8718 99.141 82.8718 98.5205V90.3551H87.9976V98.5275C87.9976 102.018 85.2061 104.86 81.7704 104.86Z" fill="#292D32"/>
<path d="M63.1375 104.874H46.6172V99.6557H63.1444C63.7471 99.6557 64.2458 99.1551 64.2458 98.5346V90.3621H69.3716V98.5346C69.3647 102.032 66.5732 104.874 63.1375 104.874Z" fill="#292D32"/>
<path d="M50.7314 90.3621V100.904C50.7314 102.935 50.0664 104.937 48.8473 106.552L46.8316 109.238H40.3828L44.7744 103.386C45.3077 102.681 45.5987 101.792 45.5987 100.904V90.3621H50.7314Z" fill="#292D32"/>
<path d="M42.1981 81.9288H37.0723V104.874H42.1981V81.9288Z" fill="#292D32"/>
<path d="M27.4365 104.874H5.91504V99.6557H27.4296C28.0322 99.6557 28.5309 99.1551 28.5309 98.5346V90.3621H33.6567V98.5346C33.6567 102.032 30.8652 104.874 27.4365 104.874Z" fill="#292D32"/>
<path d="M21.5422 99.6557L22.1864 98.3442C22.6436 97.4205 22.8791 96.3769 22.8791 95.3403C22.8791 91.6525 19.9283 88.6487 16.3056 88.6487H6.03321C2.70144 88.6487 0 91.3987 0 94.7833V98.8871C0 102.187 2.6391 104.874 5.87389 104.874H13.2301L11.0759 109.231H16.8182L18.9655 104.874H25.0333V99.6557H21.5422ZM17.6009 96.0032L15.8069 99.6557H5.87389C5.46522 99.6557 5.1258 99.3102 5.1258 98.8871V94.7833C5.1258 94.2756 5.52756 93.8666 6.03321 93.8666H16.3056C17.1022 93.8666 17.7533 94.5294 17.7533 95.3403C17.7533 95.573 17.7048 95.8057 17.6009 96.0032Z" fill="#292D32"/>
<path d="M33.6575 81.9288H28.5386V87.1467H33.6575V81.9288Z" fill="#292D32"/>
<path d="M87.9979 87.1467H75.3496L78.051 81.9288H87.9979V87.1467Z" fill="#292D32"/>
<path d="M69.3577 87.1467H56.7095L59.4109 81.9288H69.3577V87.1467Z" fill="#292D32"/>
</g>
<defs>
<clipPath id="clip0_789_399">
<rect width="87.9976" height="27.3096" fill="white" transform="translate(0 81.9288)"/>
</clipPath>
</defs>
</svg>
