<svg width="80" height="20" viewBox="0 0 80 20" fill="none" xmlns="http://www.w3.org/2000/svg">
<g clip-path="url(#clip0_788_1890)">
<path d="M74.0305 16.7932H60.6855V12.9719H74.0305C74.5761 12.9719 75.0276 12.6052 75.0276 12.1508V6.17093H79.6683V12.156C79.6683 14.7121 77.141 16.7932 74.0305 16.7932Z" fill="white"/>
<path d="M57.1617 16.8035H42.2051V12.9822H57.168C57.7136 12.9822 58.1651 12.6155 58.1651 12.1611V6.17609H62.8058V12.1611C62.7995 14.7224 60.2722 16.8035 57.1617 16.8035Z" fill="white"/>
<path d="M45.9296 6.17609V13.8962C45.9296 15.3834 45.3276 16.85 44.2239 18.0325L42.399 20H36.5605L40.5365 15.7139C41.0193 15.1975 41.2827 14.5469 41.2827 13.8962V6.17609H45.9296Z" fill="white"/>
<path d="M38.2041 0H33.5635V16.8035H38.2041V0Z" fill="white"/>
<path d="M24.8399 16.8035H5.35547V12.9822H24.8336C25.3792 12.9822 25.8307 12.6155 25.8307 12.1611V6.17609H30.4714V12.1611C30.4714 14.7224 27.9441 16.8035 24.8399 16.8035Z" fill="white"/>
<path d="M19.5032 12.9822L20.0865 12.0217C20.5004 11.3452 20.7136 10.5809 20.7136 9.82184C20.7136 7.12109 18.0421 4.92125 14.7623 4.92125H5.46216C2.44574 4.92125 0 6.93519 0 9.41389V12.4193C0 14.836 2.3893 16.8035 5.31793 16.8035H11.9779L10.0276 19.9948H15.2263L17.1704 16.8035H22.6639V12.9822H19.5032ZM15.935 10.3073L14.3107 12.9822H5.31793C4.94793 12.9822 4.64064 12.7292 4.64064 12.4193V9.41389C4.64064 9.04209 5.00437 8.74258 5.46216 8.74258H14.7623C15.4834 8.74258 16.0729 9.22799 16.0729 9.82184C16.0729 9.99225 16.029 10.1627 15.935 10.3073Z" fill="white"/>
<path d="M30.4713 0H25.8369V3.82133H30.4713V0Z" fill="white"/>
<path d="M79.6689 3.82133H68.2178L70.6635 0H79.6689V3.82133Z" fill="white"/>
<path d="M62.7929 3.82133H51.3418L53.7875 0H62.7929V3.82133Z" fill="white"/>
</g>
<defs>
<clipPath id="clip0_788_1890">
<rect width="79.6686" height="20" fill="white"/>
</clipPath>
</defs>
</svg>
