<svg width="80" height="25" viewBox="0 0 80 25" fill="none" xmlns="http://www.w3.org/2000/svg">
<g clip-path="url(#clip0_751_697)">
<path d="M74.0308 20.3938H60.6858V15.7531H74.0308C74.5764 15.7531 75.0279 15.3079 75.0279 14.756V7.49402H79.6685V14.7623C79.6685 17.8665 77.1413 20.3938 74.0308 20.3938Z" fill="#292D32"/>
<path d="M57.1615 20.4062H42.2048V15.7656H57.1678C57.7134 15.7656 58.1649 15.3204 58.1649 14.7685V7.50024H62.8055V14.7685C62.7993 17.879 60.272 20.4062 57.1615 20.4062Z" fill="#292D32"/>
<path d="M45.9299 7.50024V16.8756C45.9299 18.6817 45.3278 20.4627 44.2241 21.8988L42.3992 24.2881H36.5608L40.5367 19.083C41.0196 18.4559 41.283 17.6658 41.283 16.8756V7.50024H45.9299Z" fill="#292D32"/>
<path d="M38.2039 0H33.5632V20.4063H38.2039V0Z" fill="#292D32"/>
<path d="M24.8399 20.4062H5.35547V15.7656H24.8336C25.3792 15.7656 25.8307 15.3204 25.8307 14.7685V7.50024H30.4714V14.7685C30.4714 17.879 27.9441 20.4062 24.8399 20.4062Z" fill="#292D32"/>
<path d="M19.5032 15.7657L20.0865 14.5993C20.5004 13.7777 20.7136 12.8496 20.7136 11.9278C20.7136 8.64795 18.0421 5.97644 14.7623 5.97644H5.46216C2.44574 5.97644 0 8.42219 0 11.4323V15.0821C0 18.017 2.3893 20.4063 5.31793 20.4063H11.9779L10.0276 24.2819H15.2263L17.1704 20.4063H22.6639V15.7657H19.5032ZM15.935 12.5172L14.3107 15.7657H5.31793C4.94793 15.7657 4.64064 15.4584 4.64064 15.0821V11.4323C4.64064 10.9808 5.00437 10.6171 5.46216 10.6171H14.7623C15.4834 10.6171 16.0729 11.2066 16.0729 11.9278C16.0729 12.1347 16.029 12.3416 15.935 12.5172Z" fill="#292D32"/>
<path d="M30.4715 0H25.8372V4.64064H30.4715V0Z" fill="#292D32"/>
<path d="M79.6686 4.64064H68.2175L70.6633 0H79.6686V4.64064Z" fill="#292D32"/>
<path d="M62.7929 4.64064H51.3418L53.7875 0H62.7929V4.64064Z" fill="#292D32"/>
</g>
<defs>
<clipPath id="clip0_751_697">
<rect width="79.6686" height="24.2881" fill="white"/>
</clipPath>
</defs>
</svg>
